<?xml version="1.0" encoding="UTF-8"?>
<svg width="1024px" height="331px" xmlns="http://www.w3.org/2000/svg" xmlns:xlink="http://www.w3.org/1999/xlink" version="1.1" id="Layer_1" x="0px" y="0px" viewBox="0 0 792 256.615" xml:space="preserve">
<g>
	<path d="M280.096,63.149h-3.66c-1.411-6.206-4.795-9.144-10.501-9.144c-8.149,0-13.257,7.795-13.257,20.03   c0,12.431,5.061,20.092,13.307,20.092c6.494,0,10.404-4.311,11.302-12.228h3.585c-0.917,9.979-6.241,15.719-14.627,15.719   c-10.852,0-17.596-9.031-17.596-23.449c0-14.368,6.816-23.668,17.336-23.668C273.724,50.502,278.977,55.216,280.096,63.149"></path>
	<path d="M310.48,81.074h-21.04c0.203,8.678,3.507,13.404,9.363,13.404c3.616,0,5.706-1.495,7.589-5.327l3.325,0.601   c-1.961,5.277-5.584,7.93-10.845,7.93c-8.083,0-12.941-6.288-12.941-16.607c0-10.664,4.936-17.505,12.585-17.505   c7.282,0,11.965,6.428,11.965,16.266C310.48,80.117,310.48,80.517,310.48,81.074 M306.851,78.127   c-0.391-7.167-3.51-11.286-8.449-11.286c-4.855,0-8.068,4.12-8.834,11.286H306.851z M296.516,58.626l6.166-8.731h5.396   l-8.493,8.731H296.516z"></path>
	<path d="M341.286,64.538v2.809l-6.284-0.156c1.868,1.711,2.965,4.583,2.965,7.88c0,3.613-1.301,6.478-3.644,7.914   c-1.489,1.048-2.071,1.232-6.422,2.481c-4.68,1.276-6.425,2.309-6.425,3.885c0,1.445,0.77,1.724,5.99,2.252   c6.857,0.679,8.734,1.179,10.833,2.812c1.921,1.495,3.047,3.96,3.047,6.697c0,6.022-5.19,9.779-13.501,9.779   c-8.052,0-13.317-3.694-13.317-9.303c0-3.97,1.939-6.435,6.541-8.124c-2.259-0.907-3.216-1.99-3.216-3.713   c0-2.255,1.467-3.682,5.496-5.255c-4.345-1.636-6.435-4.661-6.435-9.388c0-6.55,4.304-10.914,10.78-10.914   c1.561,0,2.853,0.194,4.439,0.688L341.286,64.538 M327.694,95.301c-6.219,0-9.932,2.252-9.932,6.156   c0,3.688,4.035,6.169,10.082,6.169c6.294,0,10.123-2.415,10.123-6.241C337.967,97.418,334.454,95.301,327.694,95.301z    M327.516,67.191c-4.048,0-7.095,3.291-7.095,7.792c0,4.379,2.859,7.329,7.095,7.329c4.217,0,6.938-2.875,6.938-7.329   C334.454,70.41,331.583,67.191,327.516,67.191z"></path>
	<path d="M368.098,81.074h-21.04c0.21,8.678,3.519,13.404,9.363,13.404c3.644,0,5.725-1.495,7.605-5.327l3.325,0.601   c-1.968,5.277-5.612,7.93-10.87,7.93c-8.042,0-12.916-6.288-12.916-16.607c0-10.664,4.921-17.505,12.594-17.505   c7.279,0,11.94,6.428,11.94,16.266C368.098,80.117,368.098,80.517,368.098,81.074 M364.469,78.127   c-0.379-7.167-3.491-11.286-8.437-11.286c-4.861,0-8.052,4.12-8.828,11.286H364.469z"></path>
	<path d="M374.873,110.356V73.892c0-5.796-0.131-7.533-0.629-9.353h3.472c0.413,1.279,0.472,1.974,0.529,3.957l0.084,1.107   c2.062-4.185,4.789-6.034,8.831-6.034c6.988,0,11.749,6.966,11.749,17.302c0,10.254-4.433,16.811-11.512,16.811   c-3.948,0-6.935-1.833-9.069-5.527v18.203H374.873 M387.161,94.478c5.19,0,8.246-5.064,8.246-13.557   c0-8.596-3.241-14.13-8.399-14.13c-5.193,0-8.818,5.743-8.818,13.867C378.189,88.872,381.786,94.478,387.161,94.478z"></path>
	<path d="M279.073,173.889l-2.615-7.855H260.66l-2.684,7.855h-9.025l16.144-44.423h6.813l16.223,44.423H279.073 M268.728,142.567   l-5.612,16.169h11.024L268.728,142.567z"></path>
	<path d="M310.661,173.889v-19.657c0-4.436-2.812-5.915-5.359-5.915c-2.581,0-5.449,1.48-5.449,5.915v19.657h-8.096v-32.511h7.917v3   c2.14-2.24,5.108-3.378,8.099-3.378c3.266,0,5.893,1.051,7.705,2.865c2.615,2.643,3.285,5.693,3.285,9.244v20.78H310.661"></path>
	<path d="M344.235,173.889v-3.053c-2.246,2.515-4.614,3.432-8.055,3.432c-3.181,0-6.175-1.123-7.971-2.922   c-3.272-3.235-3.325-8.875-3.325-13.751c0-4.842,0.053-10.411,3.325-13.642c1.796-1.814,4.742-2.953,7.921-2.953   c3.306,0,5.8,0.879,7.933,3.253v-14.787h8.115v44.423H344.235 M338.508,148.317c-4.864,0-5.509,3.991-5.509,9.278   c0,5.324,0.644,9.372,5.509,9.372c4.867,0,5.555-4.048,5.555-9.372C344.063,152.308,343.375,148.317,338.508,148.317z"></path>
	<path d="M377.685,150.237c-1.248-1.239-2.312-1.921-4.295-1.921c-2.506,0-5.255,1.868-5.255,5.984v19.588h-8.111v-32.511h7.933   v3.131c1.548-1.889,4.673-3.51,8.18-3.51c3.175,0,5.421,0.813,7.683,3.062L377.685,150.237"></path>
	<path d="M391.599,160.172c0,4.176,2.562,7.232,7.107,7.232c3.576,0,5.302-1.001,7.379-3.056l4.93,4.802   c-3.303,3.313-6.491,5.118-12.369,5.118c-7.661,0-15.009-3.488-15.009-16.673c0-10.583,5.734-16.595,14.124-16.595   c9.053,0,14.199,6.632,14.199,15.556v3.616H391.599 M403.229,151.119c-0.898-1.936-2.69-3.366-5.468-3.366   c-2.712,0-4.548,1.43-5.409,3.366c-0.491,1.189-0.682,2.052-0.754,3.488h12.356C403.895,153.171,403.73,152.308,403.229,151.119z    M399.97,136.208h-5.434l3.985-10.63h8.552L399.97,136.208z"></path>
	<rect x="417.325" y="152.308" width="19.219" height="7.554"></rect>
	<polyline points="444.149,173.889 444.149,129.466 452.826,129.466 452.826,166.16 472.968,166.16 472.968,173.889    444.149,173.889  "></polyline>
	<path d="M494.834,173.889v-2.8c-2.19,2.174-4.239,3.119-7.993,3.119c-3.672,0-6.369-0.945-8.296-2.862   c-1.752-1.814-2.668-4.433-2.668-7.282c0-5.212,3.519-9.456,11.089-9.456h7.667v-1.608c0-3.569-1.727-5.14-6.047-5.14   c-3.113,0-4.536,0.76-6.241,2.687l-5.177-5.03c3.181-3.485,6.309-4.517,11.74-4.517c9.119,0,13.858,3.882,13.858,11.49v21.4   H494.834 M494.634,160.172h-6.403c-2.965,0-4.567,1.37-4.567,3.676c0,2.252,1.489,3.751,4.702,3.751   c2.23,0,3.654-0.194,5.083-1.564c0.888-0.804,1.186-2.14,1.186-4.12V160.172z"></path>
	<path d="M528.959,173.889v-2.975c-2.112,2.23-5.09,3.353-8.099,3.353c-3.253,0-5.871-1.051-7.673-2.856   c-2.621-2.65-3.3-5.69-3.3-9.234v-20.799h8.096v19.679c0,4.429,2.818,5.909,5.362,5.909c2.581,0,5.44-1.48,5.44-5.909v-19.679   h8.111v32.511H528.959"></path>
	<path d="M562.424,150.237c-1.254-1.239-2.318-1.921-4.323-1.921c-2.474,0-5.224,1.868-5.224,5.984v19.588h-8.115v-32.511h7.933   v3.131c1.552-1.889,4.692-3.51,8.168-3.51c3.194,0,5.44,0.813,7.67,3.062L562.424,150.237"></path>
	<path d="M576.344,160.172c0,4.176,2.565,7.232,7.12,7.232c3.547,0,5.315-1.001,7.367-3.056l4.927,4.802   c-3.316,3.313-6.497,5.118-12.366,5.118c-7.673,0-15.043-3.488-15.043-16.673c0-10.583,5.75-16.595,14.189-16.595   c9.034,0,14.167,6.632,14.167,15.556v3.616H576.344 M587.956,151.119c-0.879-1.936-2.662-3.366-5.418-3.366   c-2.765,0-4.564,1.43-5.44,3.366c-0.507,1.189-0.698,2.052-0.754,3.488h12.347C588.629,153.171,588.463,152.308,587.956,151.119z"></path>
	<path d="M621.843,173.889v-19.657c0-4.436-2.825-5.915-5.371-5.915c-2.568,0-5.415,1.48-5.415,5.915v19.657h-8.139v-32.511h7.939v3   c2.112-2.24,5.124-3.378,8.114-3.378c3.238,0,5.872,1.051,7.667,2.865c2.631,2.643,3.313,5.693,3.313,9.244v20.78H621.843"></path>
	<path d="M655.415,173.889v-3.053c-2.246,2.515-4.62,3.432-8.027,3.432c-3.206,0-6.203-1.123-8.005-2.922   c-3.266-3.235-3.306-8.875-3.306-13.751c0-4.842,0.041-10.411,3.306-13.642c1.802-1.814,4.736-2.953,7.914-2.953   c3.291,0,5.809,0.879,7.936,3.253v-14.787h8.114v44.423H655.415 M649.656,148.317c-4.852,0-5.474,3.991-5.474,9.278   c0,5.324,0.622,9.372,5.474,9.372c4.886,0,5.577-4.048,5.577-9.372C655.233,152.308,654.542,148.317,649.656,148.317z"></path>
	<path d="M677.578,160.172c0,4.176,2.559,7.232,7.104,7.232c3.563,0,5.33-1.001,7.379-3.056l4.908,4.802   c-3.306,3.313-6.491,5.118-12.322,5.118c-7.695,0-15.062-3.488-15.062-16.673c0-10.583,5.728-16.595,14.158-16.595   c9.056,0,14.183,6.632,14.183,15.556v3.616H677.578 M689.177,151.119c-0.867-1.936-2.681-3.366-5.434-3.366   c-2.728,0-4.542,1.43-5.418,3.366c-0.516,1.189-0.691,2.052-0.748,3.488h12.35C689.896,153.171,689.69,152.308,689.177,151.119z"></path>
	<path d="M720.828,173.889v-2.8c-2.193,2.174-4.248,3.119-7.999,3.119c-3.669,0-6.344-0.945-8.29-2.862   c-1.755-1.814-2.687-4.433-2.687-7.282c0-5.212,3.551-9.456,11.121-9.456h7.655v-1.608c0-3.569-1.752-5.14-6.031-5.14   c-3.125,0-4.57,0.76-6.241,2.687l-5.196-5.03c3.188-3.485,6.306-4.517,11.734-4.517c9.122,0,13.855,3.882,13.855,11.49v21.4   H720.828 M720.627,160.172h-6.406c-2.95,0-4.57,1.37-4.57,3.676c0,2.252,1.501,3.751,4.698,3.751c2.23,0,3.666-0.194,5.09-1.564   c0.882-0.804,1.189-2.14,1.189-4.12V160.172z"></path>
	<path d="M754.968,173.889v-2.975c-2.14,2.23-5.111,3.353-8.127,3.353c-3.231,0-5.85-1.051-7.67-2.856   c-2.618-2.65-3.313-5.69-3.313-9.234v-20.799h8.13v19.679c0,4.429,2.8,5.909,5.365,5.909c2.546,0,5.434-1.48,5.434-5.909v-19.679   h8.136v32.511H754.968"></path>
	<path d="M134.161,88.303l26.38-38.842c0.554-0.813,0.816-1.896,0.816-2.865c0-2.981-2.487-5.521-5.506-5.521   c-1.348,0-2.268,0.36-4.239,2.049l-32.495,32.833L134.161,88.303"></path>
	<path d="M67.122,128.049l-35.821,36.186c-1.789,1.783-2.224,3.475-2.224,4.867c0.053,3.316,2.549,5.371,5.252,5.371l32.792-0.006   V128.049"></path>
	<path d="M209.712,174.527h1.996c1.301-0.059,2.312-0.441,3.028-1.079c1.289-0.979,2.086-2.65,2.086-4.376   c0-2.696-1.455-5.315-4.62-5.862l-85.514-15.775c-7.17-1.354-11.38-1.317-16.269-6.769c-1.874,1.62-3.622,10.761-3.604,10.645   l-5.243,23.217H209.712"></path>
	<path d="M83.907,53.646c-2.234-1.814-4.054-2.237-5.828-2.108c-3.188,0.253-5.903,2.928-5.875,6.716v166.039l0.059,0.394v0.05   c0.219,3.5,3.322,6.162,6.935,5.918c3.191-0.222,5.396-2.465,6.078-5.565c1.986-8.89,16.845-75.526,17.843-80.049   c-0.069,0.332-0.084,0.46,0.059-0.235c2.809-13.801,15.181-18.91,27.052-13.604l41.198,19.776l41.088,7.595L83.907,53.646"></path>
</g>
</svg>
